<svg width="261" height="284" fill="none" xmlns="http://www.w3.org/2000/svg"><path d="M134.27 131.941h-7.038v19.525h7.038v-19.525zM201.947 63.9H59.014C26.53 63.9.542 35.5.542 0H260.42c0 35.5-25.988 63.9-58.473 63.9z" fill="#FFD15C"/><path d="M149.43 63.9h-37.358v16.567h37.358V63.9z" fill="#40596B"/><path d="M260.961 262.108H0V284h260.961v-21.892z" fill="#656D78"/><path d="M260.961 262.108H0L36.275 89.933c1.083-5.325 5.414-9.467 10.828-9.467H214.4c4.872 0 9.745 4.142 10.828 9.467l35.733 172.175z" fill="#C5C5C5"/><path d="M130.045 240.165c38.228 0 69.218-30.99 69.218-69.218 0-38.228-30.99-69.218-69.218-69.218-38.227 0-69.217 30.99-69.217 69.218 0 38.228 30.99 69.218 69.217 69.218z" fill="#FF7058"/><path d="M130.046 220.239c-27.606 0-50.34-22.498-50.34-49.816 0-27.319 22.734-49.816 50.34-49.816 27.605 0 50.34 22.497 50.34 49.816 0 27.318-22.735 49.816-50.34 49.816z" fill="#F2F2F2"/><path d="M149.43 63.9h-37.358v5.917h37.358V63.9z" fill="#334A5E"/><path d="M130.57 173.045c-1.835 0-3.671-1.599-3.671-3.197v-2.131c0-2.131 1.836-28.233 3.671-28.233 1.835 0 3.671 26.635 3.671 28.233v2.131c0 1.598-1.836 3.197-3.671 3.197z" fill="#FFD15C"/><path d="M130.57 178.289c4.344 0 7.866-3.287 7.866-7.342 0-4.054-3.522-7.341-7.866-7.341-4.344 0-7.866 3.287-7.866 7.341 0 4.055 3.522 7.342 7.866 7.342z" fill="#40596B"/><path d="M132.105 124.409v6.48c0 .54-.541 1.62-1.624 1.62-.542 0-1.624-.54-1.624-1.62v-6.48c0-.54.541-1.62 1.624-1.62.541.539 1.624 1.08 1.624 1.62zm-30.319 73.439l-4.873 4.86c-.542.541-.542 1.62 0 2.161 0 0 .542.54 1.083.54.541 0 .541 0 1.082-.54l4.873-4.86c.542-.541.542-1.62 0-2.161-1.082-.539-2.165-.539-2.165 0zm62.262-58.859l-4.331 4.86c0 .54-.542.54-1.083.54-.541 0-.541 0-1.083-.54-.541-.54-.541-1.62 0-1.62l4.873-4.86c.542-.54 1.624-.54 2.166 0-.001 0-.001 1.08-.542 1.62zm-73.09 30.24H84.46c-.542 0-1.625.54-1.625 1.62 0 .54.542 1.62 1.625 1.62h6.497c.541 0 1.624-.54 1.624-1.62-.542-1.08-1.083-1.62-1.624-1.62zm85.543 0h-6.497c-.542 0-1.625.54-1.625 1.62 0 .54.542 1.62 1.625 1.62h6.497c.541 0 1.624-.54 1.624-1.62s-.541-1.62-1.624-1.62zm-73.091-25.38c0 .54-.542.54-1.083.54-.542 0-.542 0-1.083-.54l-4.873-4.86c-.541-.54-.541-1.08 0-1.62.542-.54 1.625-.54 2.166 0l4.873 4.86c.541 0 .541 1.08 0 1.62zm55.766 53.999c-.542-.54-1.625-.54-2.166 0-.542.541-.542 1.62 0 2.161l4.872 4.86s.542.54 1.083.54c.541 0 .542 0 1.083-.54.541-.541.541-1.62 0-2.161l-4.872-4.86z" fill="#CDD6E0"/><path d="M130.046 125.957c27.064 0 48.716 20.869 50.34 47.088v-2.676c0-27.289-22.735-49.762-50.34-49.762-27.606 0-50.34 22.473-50.34 49.762v2.676c1.623-26.219 23.275-47.088 50.34-47.088z" fill="#EFE4E4"/><path d="M98.537 137.369c-.541.54-1.624 1.08-2.166 1.62-.541-.54-.541-1.08 0-1.62 1.083-.54 1.625-.54 2.166 0zm33.568-12.96v1.08h-3.249v-1.08c0-.54.542-1.62 1.625-1.62.541.539 1.624 1.08 1.624 1.62zm31.943 14.58c-.542-.54-1.625-1.08-2.166-1.62.541-.54 1.624-.54 2.166 0 .541 0 .541 1.08 0 1.62z" fill="#BFCDDB"/></svg>