<svg width="20" height="20" fill="none" xmlns="http://www.w3.org/2000/svg"><path d="M14.566 19.999h.028c.528 0 1.027-.208 1.405-.586l2.712-2.712a.998.998 0 000-1.414l-4-4a1 1 0 00-1.414 0l-1.594 1.594c-.739-.22-2.118-.72-2.992-1.594-.874-.874-1.374-2.253-1.594-2.992l1.594-1.594a.999.999 0 000-1.414l-4-4a1.03 1.03 0 00-1.414 0L.587 3.999A2 2 0 000 5.434c.023 1.424.4 6.37 4.298 10.268 3.898 3.898 8.844 4.274 10.268 4.297zM4.006 3.408L6.59 5.994 5.298 7.287a.996.996 0 00-.27.912c.023.115.61 2.842 2.27 4.502 1.66 1.66 4.387 2.247 4.502 2.271a.994.994 0 00.912-.271l1.293-1.293 2.586 2.586-2.006 2.005c-1.248-.021-5.518-.356-8.873-3.712C2.346 10.921 2.02 6.636 2 5.413l2.005-2.005zm13.993 5.591h2C20 3.869 16.126 0 10.99 0v2C15.051 2 18 4.943 18 8.999z" fill="#9D9FA1"/><path d="M11 6c2.102 0 3 .897 3 3h2c0-3.225-1.776-5-5-5v2z" fill="#9D9FA1"/></svg>