<svg width="82" height="82" fill="none" xmlns="http://www.w3.org/2000/svg"><g filter="url(#filter0_d)"><rect x="7" y="4" width="66" height="66" rx="1" fill="#212121"/></g><path d="M17.6 39.089L39.69 17l22.089 22.089" stroke="#CCD351" stroke-width="4"/><path d="M26.311 39.089L39.69 25.711 53.067 39.09" stroke="#CCD351" stroke-width="3"/><path d="M33.467 39.4l6.222-6.222 6.222 6.222" stroke="#CCD351" stroke-width="2"/><path d="M22.382 62h-1.04v-3.856h-4.496V62h-1.04v-8.272h1.04v3.536h4.496v-3.536h1.04V62zm5.36-.752c.405 0 .757-.01 1.056-.032.31-.032.57-.07.784-.112v-2.912a2.887 2.887 0 00-.56-.16c-.256-.064-.608-.096-1.056-.096-.256 0-.523.021-.8.064a2.088 2.088 0 00-.768.24 1.523 1.523 0 00-.576.496c-.15.213-.224.496-.224.848 0 .31.048.57.144.784.107.213.25.384.432.512.192.128.416.224.672.288.267.053.565.08.896.08zm-.096-7.712c.544 0 1.002.08 1.376.24.384.15.693.363.928.64.235.267.405.587.512.96a4.4 4.4 0 01.16 1.216v5.216a5.91 5.91 0 01-.464.112l-.704.112a9.614 9.614 0 01-.896.096 9.97 9.97 0 01-.992.048c-.438 0-.843-.048-1.216-.144a2.84 2.84 0 01-.96-.448 2.36 2.36 0 01-.64-.8c-.15-.33-.224-.73-.224-1.2 0-.448.085-.832.256-1.152.17-.32.41-.581.72-.784.31-.213.677-.368 1.104-.464a6.34 6.34 0 011.392-.144c.15 0 .304.01.464.032.17.01.33.032.48.064a2.6 2.6 0 01.4.08c.117.021.197.043.24.064v-.512c0-.288-.021-.565-.064-.832a1.72 1.72 0 00-.288-.736 1.41 1.41 0 00-.608-.528c-.256-.139-.598-.208-1.024-.208-.608 0-1.061.043-1.36.128a8.569 8.569 0 00-.656.208l-.144-.912c.181-.085.459-.165.832-.24a7.311 7.311 0 011.376-.112zm8.3.016c.32 0 .678.021 1.072.064.406.032.784.123 1.136.272.352.139.646.363.88.672.246.299.368.71.368 1.232 0 .405-.117.768-.352 1.088-.234.31-.554.539-.96.688.598.16 1.03.416 1.296.768.267.352.4.784.4 1.296 0 .555-.112 1.003-.336 1.344-.224.33-.522.587-.896.768-.362.17-.778.283-1.248.336-.458.053-.928.08-1.408.08a9.12 9.12 0 01-1.52-.112 12.008 12.008 0 01-1.104-.24v-7.904a8.024 8.024 0 011.056-.24 9.815 9.815 0 011.616-.112zM34.314 57.2h1.888c.64 0 1.158-.107 1.552-.32.395-.213.592-.57.592-1.072 0-.32-.069-.57-.208-.752a1.212 1.212 0 00-.544-.4 2.387 2.387 0 00-.768-.176 7.818 7.818 0 00-1.872.016c-.32.032-.533.064-.64.096V57.2zm0 .864v3.04c.054.021.14.043.256.064.128.01.267.027.416.048l.496.032a8.12 8.12 0 001.552-.048 2.84 2.84 0 00.864-.24c.246-.128.443-.293.592-.496.15-.213.224-.49.224-.832 0-.299-.064-.55-.192-.752a1.239 1.239 0 00-.512-.48 2.499 2.499 0 00-.768-.256 5.195 5.195 0 00-.944-.08h-1.984zm7.199-.208c0-.725.101-1.355.304-1.888.213-.544.485-.997.816-1.36.341-.363.725-.63 1.152-.8a3.479 3.479 0 011.344-.272c1.013 0 1.819.33 2.416.992.608.661.912 1.68.912 3.056 0 .085-.005.17-.016.256 0 .085-.006.165-.016.24h-5.808c.032 1.013.283 1.792.752 2.336.47.544 1.216.816 2.24.816.565 0 1.013-.053 1.344-.16.33-.107.57-.197.72-.272l.192.896c-.15.085-.432.187-.848.304-.406.117-.886.176-1.44.176-.725 0-1.344-.107-1.856-.32a3.322 3.322 0 01-1.264-.896 3.546 3.546 0 01-.72-1.36 6.452 6.452 0 01-.224-1.744zm5.872-.656c-.021-.864-.224-1.536-.608-2.016s-.928-.72-1.632-.72c-.373 0-.71.075-1.008.224-.288.15-.544.352-.768.608a2.896 2.896 0 00-.512.864c-.117.33-.187.677-.208 1.04h4.736zm4.43 3.312c.095.075.213.155.351.24.15.085.32.165.512.24.192.075.4.139.624.192.224.043.46.064.704.064.512 0 .94-.085 1.28-.256.352-.181.635-.421.848-.72a3.14 3.14 0 00.464-1.072c.096-.416.144-.853.144-1.312 0-1.088-.272-1.92-.816-2.496-.544-.587-1.264-.88-2.16-.88a7.91 7.91 0 00-1.248.08c-.309.043-.544.09-.704.144v5.776zm0 4.448h-1.04V54.016a9.262 9.262 0 011.183-.304c.48-.096 1.088-.144 1.824-.144.608 0 1.158.101 1.648.304.502.192.928.475 1.28.848.363.373.64.827.832 1.36.203.533.304 1.136.304 1.808 0 .63-.085 1.21-.256 1.744-.16.523-.4.976-.72 1.36a3.37 3.37 0 01-1.184.88c-.458.213-.986.32-1.584.32-.544 0-1.018-.075-1.424-.224-.394-.16-.682-.31-.864-.448v3.44zm10.739-6.704c-.235.31-.47.635-.704.976-.235.341-.464.677-.688 1.008-.213.33-.41.65-.592.96-.181.299-.336.565-.464.8h-1.072c.437-.821.896-1.584 1.376-2.288.48-.715.97-1.413 1.472-2.096l-2.688-3.888h1.216l2.144 3.168 2.176-3.168h1.136l-2.64 3.824c.224.299.464.624.72.976.256.352.512.72.768 1.104.256.373.501.763.736 1.168.245.405.47.805.672 1.2h-1.12a20.157 20.157 0 00-.464-.8 16.79 16.79 0 00-.608-.96 24.54 24.54 0 00-.688-1.008 48.615 48.615 0 00-.688-.976z" fill="#CCD351"/><defs><filter id="filter0_d" x="0" y="0" width="82" height="82" filterUnits="userSpaceOnUse" color-interpolation-filters="sRGB"><feFlood flood-opacity="0" result="BackgroundImageFix"/><feColorMatrix in="SourceAlpha" values="0 0 0 0 0 0 0 0 0 0 0 0 0 0 0 0 0 0 127 0"/><feOffset dx="1" dy="4"/><feGaussianBlur stdDeviation="4"/><feColorMatrix values="0 0 0 0 0 0 0 0 0 0 0 0 0 0 0 0 0 0 0.25 0"/><feBlend in2="BackgroundImageFix" result="effect1_dropShadow"/><feBlend in="SourceGraphic" in2="effect1_dropShadow" result="shape"/></filter></defs></svg>