<svg width="290" height="290" fill="none" xmlns="http://www.w3.org/2000/svg"><path d="M145 40.781c2.311 0 4.576-.362 6.706-.996v19.121h-13.548V39.74A22.968 22.968 0 00145 40.781z" fill="#CCD1D9"/><path d="M138.158 58.906h13.548v81.608h-13.548V58.906z" fill="#965353"/><path d="M138.158 140.514h38.561v31.673c0 7.839-2.9 15.044-7.658 20.572l-23.834-20.572-24.102 20.753c-4.898-5.573-7.798-12.823-7.844-20.753v-31.673h24.877z" fill="#C5C5C5"/><path d="M163.111 140.514v31.673c0 4.627-1.033 9.018-2.836 12.991l8.781 7.581c4.763-5.528 7.663-12.733 7.663-20.572v-31.673h-13.608z" fill="#656D78"/><path d="M279.365 282.039L148.172 168.757a4.537 4.537 0 00-5.918-.004L10.634 282.034a4.525 4.525 0 00-.475 6.389A4.52 4.52 0 0013.594 290a4.498 4.498 0 002.954-1.096l3.992-3.435h248.934l3.973 3.43c1.885 1.627 4.754 1.432 6.389-.471a4.529 4.529 0 00-.471-6.389z" fill="#FFD2A6"/><path d="M279.365 282.039L148.172 168.757a4.537 4.537 0 00-5.918-.004l-6.122 5.27 125.095 108.016c1.037.897 1.518 2.161 1.518 3.43h6.719l3.974 3.43c1.885 1.627 4.754 1.432 6.389-.471a4.52 4.52 0 00-.462-6.389zm-269.206 6.384A4.519 4.519 0 0013.594 290a4.494 4.494 0 002.954-1.097l3.992-3.434H9.117c0 1.042.308 2.102 1.042 2.954z" fill="#F7C292"/><path d="M176.705 145.027h-63.41a4.526 4.526 0 01-4.531-4.531 4.526 4.526 0 014.531-4.531h63.41a4.526 4.526 0 014.531 4.531 4.526 4.526 0 01-4.531 4.531z" fill="#9A9A9A"/><path d="M145 45.313c-14.99 0-27.183-12.194-27.183-27.188a4.527 4.527 0 014.531-4.531 4.527 4.527 0 014.531 4.531c0 9.996 8.129 18.125 18.121 18.125 9.991 0 18.12-8.13 18.12-18.125a4.528 4.528 0 014.532-4.531 4.527 4.527 0 014.531 4.531c0 14.994-12.194 27.188-27.183 27.188z" fill="#C5C5C5"/><path d="M213.109 276.406c-2.506 0-4.554-2.025-4.554-4.531s2.003-4.531 4.504-4.531h.05a4.53 4.53 0 014.531 4.531 4.53 4.53 0 01-4.531 4.531zm9.072-9.072c-2.506 0-4.554-2.025-4.554-4.531s2.003-4.531 4.504-4.531h.05a4.53 4.53 0 014.531 4.531 4.53 4.53 0 01-4.531 4.531zm9.071 9.072c-2.506 0-4.554-2.025-4.554-4.531s2.003-4.531 4.504-4.531h.05a4.53 4.53 0 014.531 4.531 4.53 4.53 0 01-4.531 4.531z" fill="#F7C292"/><path d="M285.469 290H4.531A4.527 4.527 0 010 285.469a4.527 4.527 0 014.531-4.531H285.47a4.526 4.526 0 014.531 4.531A4.526 4.526 0 01285.47 290z" fill="#656D78"/><path d="M117.803 13.59h9.076v4.535h-9.076V13.59zm45.318 0h9.076v4.535h-9.076V13.59z" fill="#C5C5C5"/><path d="M171.956 14.786c.104-.39.24-.77.24-1.197V4.531A4.527 4.527 0 00167.665 0h-45.331a4.527 4.527 0 00-4.531 4.531v9.058c0 1.07.426 2.012 1.047 2.792.1.13.159.299.276.425.218.209.494.322.743.485.716.476 1.537.83 2.465.83h45.331c.082 0 .15-.046.231-.046.512-.032 1.033-.109 1.514-.303.235-.1.412-.281.625-.413.285-.177.598-.308.843-.553.195-.194.285-.448.439-.666.191-.272.408-.507.535-.815.063-.172.054-.358.104-.54z" fill="#656D78"/></svg>