<svg width="385" height="290" fill="none" xmlns="http://www.w3.org/2000/svg"><path d="M211.917 195.254v37.324a8.613 8.613 0 008.614-8.613v-13.968" fill="#9E968D"/><path d="M230.537 227.12l76.127-46.222-12.219-34.212-82.527 48.567 18.619 31.867z" fill="#FEB756"/><path d="M297.241 155.058l-80.687 48.131-4.637-7.936 82.527-48.567 2.797 8.372z" fill="#57555C"/><path d="M309.535 192.383v37.324h8.613v-43.19l-8.613 5.866z" fill="#E7E4DD"/><path d="M217.66 252.676v17.2a5.743 5.743 0 005.687 5.743l28.766.025v-5.822h94.746v-5.742h14.356v-11.404H217.66z" fill="#9E968D"/><path d="M378.441 232.578v-10.867a8.606 8.606 0 00-2.523-6.09l-17.925-17.924a8.613 8.613 0 00-6.089-2.524h-19.4a2.872 2.872 0 00-2.871 2.871v54.551h48.808v-8.533" fill="#FA8043"/><path d="M338.246 232.577v8.614c6.316 0 11.444 5.102 11.484 11.409l28.711-.005v-20.018h-40.195z" fill="#FEB756"/><path d="M364.086 203.787h-25.84v28.711h40.195v-10.787a8.602 8.602 0 00-2.523-6.089l-11.832-11.835z" fill="#C7E2FC"/><path d="M372.699 243.982h5.742a5.741 5.741 0 005.743-5.742 5.741 5.741 0 00-5.743-5.743h-5.742v11.485z" fill="#CB8600"/><path d="M361.215 269.822h8.613a8.612 8.612 0 008.613-8.613v-8.614h-17.226v17.227z" fill="#7F786B"/><path d="M329.633 241.111H211.918v11.484h117.715v-11.484z" fill="#FEB756"/><path d="M240.628 290c-7.928 0-14.355-6.427-14.355-14.355 0-7.929 6.427-14.356 14.355-14.356 7.929 0 14.356 6.427 14.356 14.356 0 7.928-6.427 14.355-14.356 14.355z" fill="#534F44"/><path d="M240.628 281.384a5.747 5.747 0 005.743-5.742 5.747 5.747 0 00-5.743-5.743 5.746 5.746 0 00-5.739 5.743 5.746 5.746 0 005.739 5.742z" fill="#57555C"/><path d="M378.441 261.208c0 1.011-.206 1.967-.525 2.868h-16.701v-5.742h17.226v2.874zM338.246 290c-7.928 0-14.355-6.427-14.355-14.355 0-7.929 6.427-14.356 14.355-14.356 7.928 0 14.356 6.427 14.356 14.356 0 7.928-6.428 14.355-14.356 14.355z" fill="#534F44"/><path d="M338.246 281.384a5.746 5.746 0 005.742-5.742 5.746 5.746 0 00-5.742-5.743 5.746 5.746 0 00-5.739 5.743 5.745 5.745 0 005.739 5.742z" fill="#57555C"/><path d="M277.953 290c-7.929 0-14.356-6.427-14.356-14.355 0-7.929 6.427-14.356 14.356-14.356 7.928 0 14.355 6.427 14.355 14.356 0 7.928-6.427 14.355-14.355 14.355z" fill="#534F44"/><path d="M277.953 281.384a5.747 5.747 0 005.742-5.742 5.747 5.747 0 00-5.742-5.743 5.747 5.747 0 00-5.74 5.743 5.746 5.746 0 005.74 5.742z" fill="#57555C"/><path d="M375.918 215.619a8.614 8.614 0 012.523 6.092v10.787h-17.993c-7.536-5.484-12.457-14.35-12.457-24.384 0-1.473.14-2.912.344-4.327h15.751l11.832 11.832z" fill="#CDCDCD"/><path d="M364.086 238.317h-11.482v5.74h11.482v-5.74z" fill="#7F786B"/><path d="M306.664 275.564a5.74 5.74 0 005.742-5.742v-5.743h-11.484v5.743a5.74 5.74 0 005.742 5.742zm-14.355-134.861l20.226-11.485 5.613 8.614-14.355 8.613 14.355 40.072-86.133 51.803-5.742-8.613 80.391-48.809-14.355-40.195z" fill="#FA8043"/><path d="M243.387 220.59l-14.7-24.663-4.933 2.94 14.7 24.663 4.933-2.94zm9.862-5.881l-14.699-24.661-4.933 2.94 14.699 24.661 4.933-2.94zm9.876-5.909l-14.701-24.663-4.932 2.94 14.7 24.663 4.933-2.94zm9.861-5.879l-14.7-24.663-4.933 2.94 14.7 24.663 4.933-2.94zm9.86-5.88l-14.7-24.663-4.932 2.94 14.7 24.663 4.932-2.94zm9.862-5.879l-14.7-24.663-4.933 2.94 14.7 24.663 4.933-2.94zm9.859-5.878l-14.7-24.663-4.933 2.94 14.7 24.663 4.933-2.94zm18.453 55.907v-14.355h-14.356v14.355" fill="#FA8043"/><path d="M0 184.006h185.04" stroke="#000"/><path d="M128.427 149.625l-7.044-28.172-59.21 3.558-5.263 21.056 71.517 3.558z" fill="#57555C"/><path d="M147.265 142.42c11.4 0 20.641 9.241 20.641 20.641 0 11.399-9.241 20.64-20.641 20.64H44.062c-11.4 0-20.641-9.241-20.641-20.64 0-11.4 9.241-20.641 20.64-20.641h103.204z" fill="#4B494F"/><path d="M195.427 25.455h-60.383c-.944 0-1.806.533-2.229 1.378l-6.191 12.383.001 6.88H99.103v-6.88l19.915-33.193a2.49 2.49 0 012.137-1.21h74.272v20.642z" fill="#FEB756"/><path d="M190.559 35.157l42.834 74.283 15.346-7.223-45.182-95.992a6.881 6.881 0 00-9.156-3.295l-13.308 6.264a2.492 2.492 0 00-1.194 3.316l10.66 22.647z" fill="#FEB756"/><path d="M194.401 2.93l-7.516 3.538a6.881 6.881 0 019.156 3.295l45.182 95.992 7.515-3.538-45.181-95.991a6.881 6.881 0 00-9.156-3.295z" fill="#FA8043"/><path d="M280.731 119.319l-7.222-16.65c-4.535-10.458-16.691-15.259-27.148-10.723l-16.651 7.222a2.492 2.492 0 00-1.295 3.277l17.398 40.114a2.493 2.493 0 002.694 1.467l8.925-1.479a2.492 2.492 0 001.878-3.45l-1.845-4.255a2.493 2.493 0 011.295-3.278l20.676-8.967a2.492 2.492 0 001.295-3.278zm-126.585-2.345V59.856c0-11.4-9.242-20.64-20.641-20.64h-45.67a2.492 2.492 0 00-2.492 2.491v11.27h48.163a6.88 6.88 0 016.879 6.879v57.534l13.761-.416z" fill="#57555C"/><path d="M207.543 38.93a3.114 3.114 0 00-1.491 4.144l5.86 12.45a3.114 3.114 0 105.636-2.652l-5.86-12.45a3.115 3.115 0 00-4.145-1.493zm-12.114-13.474c5.7 0 10.321-4.62 10.321-10.32s-4.621-10.321-10.321-10.321c-5.7 0-10.321 4.62-10.321 10.32s4.621 10.321 10.321 10.321z" fill="#85828C"/><path d="M195.429 18.36a3.225 3.225 0 100-6.45 3.225 3.225 0 000 6.45z" fill="#57555C"/><path d="M133.506 39.216h-8.307c11.399 0 20.641 9.24 20.641 20.64v57.118l-5.455.165v.251l13.761-.416V59.856c0-11.4-9.241-20.64-20.64-20.64z" fill="#4B494F"/><path d="M30.3 91.025V79.55a2.492 2.492 0 012.492-2.492H55.33a2.492 2.492 0 012.491 2.492v11.476H30.3z" fill="#57555C"/><path d="M55.33 77.057h-8.307a2.492 2.492 0 012.492 2.492v11.476h8.306V79.549a2.492 2.492 0 00-2.491-2.492z" fill="#4B494F"/><path d="M105.295 128.659h53.24a2.492 2.492 0 002.492-2.492v-8.777a2.492 2.492 0 00-2.492-2.492H99.103l6.192 13.761z" fill="#FA8043"/><path d="M92.223 92.686V39.215H80.955a2.492 2.492 0 00-2.492 2.492v50.98h13.76z" fill="#85828C"/><path d="M29.572 127.93L17.27 115.629a2.49 2.49 0 01-.73-1.762v-19.61c0-3.8 3.08-6.88 6.88-6.88h80.767a2.49 2.49 0 012.364 1.704l12.1 36.298a2.492 2.492 0 01-2.365 3.279l-84.952.002a2.493 2.493 0 01-1.762-.73z" fill="#FEB756"/><path d="M118.651 125.379L106.552 89.08a2.493 2.493 0 00-2.364-1.704h-8.307c1.073 0 2.025.687 2.364 1.704l12.099 36.299a2.491 2.491 0 01-2.364 3.279h8.307a2.491 2.491 0 002.364-3.279zm-29.868-23.916h-13.76a3.115 3.115 0 00-3.115 3.115v13.76a3.114 3.114 0 003.115 3.115h13.76a3.114 3.114 0 003.115-3.115v-13.76a3.115 3.115 0 00-3.115-3.115zm-3.114 13.761h-7.531v-7.531h7.53v7.531z" fill="#FA8043"/><path d="M26.86 94.583a3.115 3.115 0 00-3.114 3.115v13.76a3.115 3.115 0 006.229 0v-13.76a3.115 3.115 0 00-3.115-3.115zm10.321 0a3.115 3.115 0 00-3.115 3.114v13.761a3.114 3.114 0 006.23 0v-13.76a3.115 3.115 0 00-3.115-3.115zm10.321 0a3.115 3.115 0 00-3.115 3.114v13.761a3.114 3.114 0 006.23 0v-13.76a3.115 3.115 0 00-3.115-3.115z" fill="#57555C"/><path d="M44.062 173.379c5.7 0 10.32-4.62 10.32-10.32 0-5.699-4.62-10.319-10.32-10.319s-10.32 4.62-10.32 10.319c0 5.7 4.62 10.32 10.32 10.32z" fill="#85828C"/><path d="M44.061 167.894a3.114 3.114 0 01-3.114-3.114v-3.441a3.115 3.115 0 016.23 0v3.441a3.114 3.114 0 01-3.116 3.114z" fill="#4B494F"/><path d="M78.462 173.379c5.7 0 10.32-4.62 10.32-10.32 0-5.699-4.62-10.319-10.32-10.319s-10.32 4.62-10.32 10.319c0 5.7 4.62 10.32 10.32 10.32z" fill="#85828C"/><path d="M78.462 167.894a3.114 3.114 0 01-3.114-3.114v-3.441a3.115 3.115 0 016.229 0v3.441a3.114 3.114 0 01-3.115 3.114z" fill="#4B494F"/><path d="M112.866 173.379c5.699 0 10.32-4.62 10.32-10.32 0-5.699-4.621-10.319-10.32-10.319-5.7 0-10.32 4.62-10.32 10.319 0 5.7 4.62 10.32 10.32 10.32z" fill="#85828C"/><path d="M112.865 167.894a3.114 3.114 0 01-3.115-3.114v-3.441a3.115 3.115 0 116.229 0v3.441a3.114 3.114 0 01-3.114 3.114z" fill="#4B494F"/><path d="M147.266 173.379c5.7 0 10.32-4.62 10.32-10.32 0-5.699-4.62-10.319-10.32-10.319-5.699 0-10.32 4.62-10.32 10.319 0 5.7 4.621 10.32 10.32 10.32z" fill="#85828C"/><path d="M147.266 167.894a3.114 3.114 0 01-3.115-3.114v-3.441a3.115 3.115 0 116.229 0v3.441a3.114 3.114 0 01-3.114 3.114z" fill="#4B494F"/><path d="M195.429 18.36a3.225 3.225 0 100-6.45 3.225 3.225 0 000 6.45z" fill="#000"/><rect x="230.524" y="141.623" width="3.101" height="10.337" rx="1.551" fill="#D39951"/><rect x="225.356" y="131.285" width="3.101" height="10.337" rx="1.551" fill="#D39951"/><rect x="234.66" y="127.15" width="3.101" height="10.337" rx="1.551" fill="#D39951"/><rect x="241.896" y="155.061" width="3.101" height="10.337" rx="1.551" fill="#D39951"/><rect x="229.491" y="161.263" width="3.101" height="10.337" rx="1.551" fill="#D39951"/><rect x="236.727" y="144.723" width="3.101" height="10.337" rx="1.551" fill="#D39951"/><rect x="235.693" y="163.331" width="3.101" height="10.337" rx="1.551" fill="#D39951"/></svg>