<svg width="21" height="30" fill="none" xmlns="http://www.w3.org/2000/svg"><path d="M10.5 17.434c3.033 0 5.5-2.688 5.5-5.993s-2.467-5.993-5.5-5.993S5 8.136 5 11.441s2.467 5.993 5.5 5.993zm0-8.99c1.517 0 2.75 1.345 2.75 2.997 0 1.653-1.233 2.997-2.75 2.997s-2.75-1.344-2.75-2.997c0-1.652 1.233-2.996 2.75-2.996z" fill="#D39951"/><path d="M9.739 29.147c.222.178.488.273.761.273s.54-.095.761-.273c.4-.316 9.777-7.905 9.739-17.379C21 5.28 16.29 0 10.5 0S0 5.28 0 11.76c-.038 9.482 9.34 17.07 9.739 17.387zM10.5 2.942c4.343 0 7.875 3.959 7.875 8.834.027 6.528-5.76 12.39-7.875 14.313-2.114-1.924-7.902-7.788-7.875-14.32 0-4.868 3.532-8.827 7.875-8.827z" fill="#D39951"/></svg>