<svg width="20" height="22" fill="none" xmlns="http://www.w3.org/2000/svg"><path d="M14.566 21.77h.028c.528 0 1.027-.226 1.405-.638l2.712-2.952a1.1 1.1 0 00.217-.353 1.171 1.171 0 000-.833 1.1 1.1 0 00-.217-.353l-4-4.354a.998.998 0 00-.324-.237.93.93 0 00-.765 0 .998.998 0 00-.325.236l-1.594 1.736c-.739-.24-2.118-.784-2.992-1.736-.874-.95-1.374-2.452-1.594-3.256l1.594-1.736c.093-.1.167-.22.217-.353a1.172 1.172 0 000-.833 1.098 1.098 0 00-.217-.353l-4-4.354a.987.987 0 00-.707-.306.987.987 0 00-.707.306L.587 4.353A2.28 2.28 0 000 5.915c.023 1.55.4 6.934 4.298 11.177 3.898 4.244 8.844 4.653 10.268 4.678zM4.006 3.71L6.59 6.525 5.298 7.932a1.107 1.107 0 00-.251.46 1.177 1.177 0 00-.02.533c.024.125.611 3.094 2.271 4.9 1.66 1.808 4.387 2.447 4.502 2.473.163.038.332.03.49-.021a.982.982 0 00.422-.274l1.293-1.408 2.586 2.815-2.006 2.183c-1.248-.023-5.518-.388-8.873-4.04C2.346 11.887 2.02 7.222 2 5.892L4.005 3.71zm13.993 6.086h2C20 4.212 16.126 0 10.99 0v2.177c4.062 0 7.01 3.204 7.01 7.619z" fill="#D39951"/><path d="M10.999 6.531c2.103 0 3 .977 3 3.266h2c0-3.51-1.775-5.443-5-5.443v2.177z" fill="#D39951"/></svg>