<svg width="61" height="61" fill="none" xmlns="http://www.w3.org/2000/svg"><path fill="#fff" d="M11.737 5.776h35.526v40.855H11.737z"/><g filter="url(#filter0_d)"><path d="M47.781 4H11.22A4.231 4.231 0 007 8.219V44.78A4.231 4.231 0 0011.219 49H47.78A4.231 4.231 0 0052 44.781V8.22A4.231 4.231 0 0047.781 4zm-4.334 31.5l-4.114.062s-.89.177-2.048-.624c-1.538-1.055-2.99-3.806-4.123-3.446-1.142.36-1.108 2.83-1.108 2.83s.008.528-.256.807c-.281.306-.844.368-.844.368h-1.837s-4.06.248-7.638-3.482c-3.904-4.06-7.346-12.119-7.346-12.119s-.203-.529.016-.782c.245-.29.906-.306.906-.306l4.404-.026s.414.07.712.29c.247.177.377.518.377.518s.711 1.802 1.654 3.428c1.836 3.173 2.697 3.867 3.321 3.533.906-.493.633-4.492.633-4.492s.017-1.451-.456-2.092c-.368-.501-1.063-.65-1.36-.687-.248-.036.157-.607.685-.869.79-.388 2.188-.413 3.842-.396 1.283.008 1.662.095 2.163.21 1.522.37 1.001 1.784 1.001 5.178 0 1.092-.194 2.619.588 3.12.335.219 1.159.033 3.226-3.471.976-1.662 1.713-3.611 1.713-3.611s.157-.352.405-.501c.256-.15.599-.104.599-.104l4.632-.025s1.39-.166 1.617.466c.236.659-.517 2.197-2.407 4.72-3.102 4.14-3.454 3.752-.87 6.142 2.462 2.287 2.97 3.4 3.06 3.541 1.002 1.688-1.141 1.82-1.141 1.82h-.006z" fill="#266FC8"/></g><defs><filter id="filter0_d" x="0" y="0" width="61" height="61" filterUnits="userSpaceOnUse" color-interpolation-filters="sRGB"><feFlood flood-opacity="0" result="BackgroundImageFix"/><feColorMatrix in="SourceAlpha" values="0 0 0 0 0 0 0 0 0 0 0 0 0 0 0 0 0 0 127 0"/><feOffset dx="1" dy="4"/><feGaussianBlur stdDeviation="4"/><feColorMatrix values="0 0 0 0 0 0 0 0 0 0 0 0 0 0 0 0 0 0 0.25 0"/><feBlend in2="BackgroundImageFix" result="effect1_dropShadow"/><feBlend in="SourceGraphic" in2="effect1_dropShadow" result="shape"/></filter></defs></svg>